<svg width="512" height="512" viewBox="0 0 512 512" xmlns="http://www.w3.org/2000/svg">
  <defs>
    <radialGradient id="grad1" cx="50%" cy="50%" r="50%" fx="50%" fy="50%">
      <stop offset="0%" style="stop-color:#ff6b6b;stop-opacity:1" />
      <stop offset="100%" style="stop-color:#8b0000;stop-opacity:1" />
    </radialGradient>
  </defs>
  
  <!-- Background Circle -->
  <circle cx="256" cy="256" r="240" fill="url(#grad1)" stroke="#333" stroke-width="10"/>
  
  <!-- Horns -->
  <path d="M150 150 L100 20 L200 120 Z" fill="#daa520" stroke="#333" stroke-width="5"/>
  <path d="M362 150 L412 20 L312 120 Z" fill="#daa520" stroke="#333" stroke-width="5"/>
  
  <!-- Face -->
  <circle cx="256" cy="256" r="180" fill="#cc0000" stroke="#333" stroke-width="5"/>
  
  <!-- Eyes -->
  <ellipse cx="180" cy="230" rx="40" ry="60" fill="yellow" stroke="#333" stroke-width="3"/>
  <ellipse cx="332" cy="230" rx="40" ry="60" fill="yellow" stroke="#333" stroke-width="3"/>
  <circle cx="180" cy="230" r="15" fill="black" />
  <circle cx="332" cy="230" r="15" fill="black" />
  
  <!-- Nose -->
  <circle cx="230" cy="330" r="15" fill="#333" opacity="0.6"/>
  <circle cx="282" cy="330" r="15" fill="#333" opacity="0.6"/>
  
  <!-- Mouth -->
  <path d="M160 380 Q256 430 352 380" stroke="black" stroke-width="10" fill="none"/>
  
  <!-- Teeth -->
  <path d="M180 390 L200 430 L220 395" fill="white" stroke="black" stroke-width="2"/>
  <path d="M292 395 L312 430 L332 390" fill="white" stroke="black" stroke-width="2"/>
</svg>